PathFileType	4	(X/Y/Z)	TVC_41_BWA_02_walk_RCNL2025.trc
DataRate	CameraRate	NumFrames	NumMarkers	Units	OrigDataRate	OrigDataStartFrame	OrigNumFrames
100	100	4	27	mm	100	266	531
Frame#	Time	R_Shoulder			L_Shoulder			C7			J_Notch			R_Elbow			L_Elbow			R_Wrist			L_Wrist			R_Asis			L_Asis			R_Psis			L_Psis			Sacral			Thoracic			Sternum			R_Thigh_Lateral			R_Knee_Lateral			R_Shank_Lateral			R_Ankle_Lateral			R_Heel			R_Toe			L_Thigh_Lateral			L_Knee_Lateral			L_Shank_Lateral			L_Ankle_Lateral			L_Heel			L_Toe		
		X1	Y1	Z1	X2	Y2	Z2	X3	Y3	Z3	X4	Y4	Z4	X5	Y5	Z5	X6	Y6	Z6	X7	Y7	Z7	X8	Y8	Z8	X9	Y9	Z9	X10	Y10	Z10	X11	Y11	Z11	X12	Y12	Z12	X13	Y13	Z13	X14	Y14	Z14	X15	Y15	Z15	X16	Y16	Z16	X17	Y17	Z17	X18	Y18	Z18	X19	Y19	Z19	X20	Y20	Z20	X21	Y21	Z21	X22	Y22	Z22	X23	Y23	Z23	X24	Y24	Z24	X25	Y25	Z25	X26	Y26	Z26	X27	Y27	Z27
266	2.65000000	-905.784729	1247.421753	-5.764084	-896.171936	1257.899414	-344.817535	-955.702637	1306.330078	-171.558762	-824.276611	1210.836426	-167.036865	-1005.081848	969.751160	29.648365	-955.585571	966.721375	-401.887817	-811.101044	910.108795	-5.911477	-872.298920	778.691681	-430.550964	-855.795105	871.489868	-45.486477	-855.539246	844.475403	-290.445709	-1020.076233	871.308472	-116.365662	-1026.648438	855.878418	-204.194046	-1023.362335	863.593445	-160.279854	-990.564758	1012.878906	-185.589325	-790.877014	1030.976685	-182.585541	-857.839661	653.433228	48.042206	-851.055847	421.372681	-26.791044	-872.660461	291.467316	43.984509	-859.383789	82.322922	-22.309097	-905.048950	56.489067	-67.444595	-746.987183	42.917011	-23.255602	-940.934875	577.631897	-374.951447	-945.008545	386.525330	-284.595673	-998.179565	259.002838	-350.583099	-1082.965454	64.361595	-291.103180	-1132.026733	46.095074	-252.833984	-966.160828	37.990520	-273.555511
267	2.66000000	-901.662903	1246.595215	-3.274376	-892.038086	1257.577026	-342.320587	-951.684631	1305.713013	-168.986359	-820.190186	1210.312622	-164.645294	-999.906494	968.340027	31.647594	-951.420715	966.369324	-399.328857	-806.065033	909.791351	-3.437718	-868.091583	778.313751	-427.977661	-851.919067	870.967773	-43.101345	-851.457825	843.485962	-287.897430	-1016.120667	871.598328	-114.089386	-1022.706177	855.905701	-201.961639	-1019.413422	863.752014	-158.025513	-986.261108	1012.363098	-183.441406	-786.584961	1030.463745	-180.335815	-855.152283	652.977478	50.395424	-850.399597	420.668701	-24.970518	-871.668030	290.834290	45.813431	-859.610718	81.715187	-21.128513	-905.899719	55.975159	-65.811714	-747.185547	42.944416	-22.834288	-938.100037	577.017517	-372.594543	-942.125732	385.724823	-282.932770	-996.456055	259.156403	-349.554382	-1082.699463	64.594498	-290.974731	-1131.822876	46.498764	-252.805756	-966.027161	37.935532	-273.649536
268	2.67000000	-897.570374	1245.808716	-0.806635	-887.755310	1257.263916	-339.835327	-947.602112	1305.136353	-166.459412	-816.071228	1209.794067	-162.228775	-994.867310	966.986450	33.538330	-947.091553	966.039856	-396.824432	-801.227264	909.472961	-0.912251	-863.776978	777.934509	-425.375885	-848.156189	870.487488	-40.687782	-847.420776	842.503906	-285.320923	-1012.251221	871.940674	-111.846298	-1018.822754	855.980591	-199.755646	-1015.536987	863.960632	-155.800972	-981.977356	1011.904358	-181.329941	-782.305664	1029.942749	-178.030869	-852.665466	652.586060	52.831322	-849.711853	420.049530	-23.095140	-870.619934	290.283875	47.690662	-859.794556	81.182480	-19.890482	-906.726685	55.557903	-64.116066	-747.369446	42.986996	-22.422710	-935.326599	576.430969	-370.203308	-939.196716	384.936646	-281.271393	-994.694702	259.342468	-348.511932	-1082.412354	64.888199	-290.827606	-1131.598755	46.975124	-252.758255	-965.884827	37.881977	-273.747681
269	2.68000000	-893.509094	1245.068481	1.637383	-883.335571	1256.960327	-337.364319	-943.460022	1304.604370	-163.979584	-811.925476	1209.282837	-159.789948	-989.984070	965.709167	35.332821	-942.607849	965.731750	-394.375031	-796.584930	909.150543	1.645923	-859.359406	777.555939	-422.749557	-844.512329	870.044617	-38.249245	-843.441162	841.540283	-282.724274	-1008.475098	872.332886	-109.635155	-1015.008057	856.106079	-197.574280	-1011.741577	864.219482	-153.604717	-977.722534	1011.506165	-179.249924	-778.047913	1029.415527	-175.672455	-850.395325	652.242432	55.334316	-848.998047	419.505676	-21.184208	-869.539001	289.800751	49.586163	-859.936829	80.714386	-18.626610	-907.515808	55.222046	-62.403362	-747.541321	43.035851	-22.028742	-932.617554	575.887329	-367.791290	-936.223816	384.169464	-279.621552	-992.890991	259.562683	-347.461670	-1082.102539	65.254059	-290.666290	-1131.355103	47.535160	-252.694901	-965.735657	37.832462	-273.846802
